<svg width="60" height="61" viewBox="0 0 60 61" fill="none" xmlns="http://www.w3.org/2000/svg">
<path d="M10 45.5H50C51.375 45.5 52.5 44.375 52.5 43C52.5 41.625 51.375 40.5 50 40.5H10C8.625 40.5 7.5 41.625 7.5 43C7.5 44.375 8.625 45.5 10 45.5ZM10 33H50C51.375 33 52.5 31.875 52.5 30.5C52.5 29.125 51.375 28 50 28H10C8.625 28 7.5 29.125 7.5 30.5C7.5 31.875 8.625 33 10 33ZM7.5 18C7.5 19.375 8.625 20.5 10 20.5H50C51.375 20.5 52.5 19.375 52.5 18C52.5 16.625 51.375 15.5 50 15.5H10C8.625 15.5 7.5 16.625 7.5 18Z" fill="black"/>
</svg>
